<svg width="89" height="89" viewBox="0 0 89 89" fill="none" xmlns="http://www.w3.org/2000/svg">
<g filter="url(#filter0_i_129_3689)">
<circle cx="44.5" cy="44.5" r="44.5" fill="#111111"/>
</g>
<path d="M15.068 39.1234C15.068 40.7626 16.3861 41.8779 18.4646 41.8779C20.5263 41.8779 21.9627 40.8302 21.9627 39.1403C21.9627 37.856 21.2529 37.2138 19.8503 36.8928L18.3463 36.5379C17.6366 36.3689 17.2648 36.0647 17.2648 35.5916C17.2648 34.9663 17.738 34.5945 18.5491 34.5945C19.3434 34.5945 19.8165 35.0508 19.8334 35.7605H21.7937C21.7768 34.1383 20.5094 33.0567 18.6336 33.0567C16.7072 33.0567 15.3215 34.0369 15.3215 35.6761C15.3215 37.0111 16.0481 37.7208 17.5521 38.0588L19.0561 38.4136C19.7996 38.5826 20.0193 38.8868 20.0193 39.3093C20.0193 39.9176 19.4954 40.3063 18.5322 40.3063C17.5859 40.3063 17.0451 39.85 17.0282 39.1234H15.068ZM23.5324 45.528H25.594V40.5429C26.1179 41.3878 27.1994 41.8779 28.4499 41.8779C30.934 41.8779 32.3535 39.9852 32.3535 37.3828C32.3535 34.7635 30.7988 33.0567 28.4499 33.0567C27.1825 33.0567 26.0841 33.6144 25.5771 34.5776L25.442 33.3102H23.5324V45.528ZM25.6109 37.4842C25.6109 35.9802 26.5404 34.9325 27.9599 34.9325C29.4132 34.9325 30.275 35.9971 30.275 37.4842C30.275 38.9713 29.4132 40.019 27.9599 40.019C26.5404 40.019 25.6109 38.9882 25.6109 37.4842ZM33.505 37.4673C33.505 40.0697 35.3808 41.861 37.9663 41.861C40.5518 41.861 42.4276 40.0697 42.4276 37.4673C42.4276 34.8649 40.5518 33.0736 37.9663 33.0736C35.3808 33.0736 33.505 34.8649 33.505 37.4673ZM35.5667 37.4673C35.5667 35.9464 36.5468 34.9156 37.9663 34.9156C39.3858 34.9156 40.3659 35.9464 40.3659 37.4673C40.3659 38.9882 39.3858 40.019 37.9663 40.019C36.5468 40.019 35.5667 38.9882 35.5667 37.4673ZM49.3003 33.2764C48.9623 33.1919 48.6751 33.1581 48.3878 33.1581C47.2725 33.1581 46.4782 33.7158 46.1234 34.5438L46.0051 33.3271H44.0617V41.6582H46.1234V37.6025C46.1234 35.9802 47.0528 35.186 48.5399 35.186H49.3003V33.2764ZM53.8648 41.6582V35.0339H55.4871V33.3102H53.8648V30.7078H51.8032V33.3102H50.1978V35.0339H51.8032V41.6582H53.8648ZM56.1266 39.1234C56.1266 40.7626 57.4447 41.8779 59.5233 41.8779C61.5849 41.8779 63.0213 40.8302 63.0213 39.1403C63.0213 37.856 62.3116 37.2138 60.909 36.8928L59.405 36.5379C58.6952 36.3689 58.3235 36.0647 58.3235 35.5916C58.3235 34.9663 58.7966 34.5945 59.6078 34.5945C60.402 34.5945 60.8752 35.0508 60.8921 35.7605H62.8523C62.8354 34.1383 61.568 33.0567 59.6922 33.0567C57.7658 33.0567 56.3801 34.0369 56.3801 35.6761C56.3801 37.0111 57.1067 37.7208 58.6107 38.0588L60.1147 38.4136C60.8583 38.5826 61.0779 38.8868 61.0779 39.3093C61.0779 39.9176 60.5541 40.3063 59.5909 40.3063C58.6445 40.3063 58.1038 39.85 58.0869 39.1234H56.1266Z" fill="#F2F2F2"/>
<path d="M47.4613 59.2028C48.7794 59.2028 49.8947 58.6282 50.4354 57.496L50.5706 59H51.9901V46.5625H50.4185V52.0715C49.8609 51.0576 48.7963 50.4999 47.5289 50.4999C45.0785 50.4999 43.6084 52.3588 43.6084 54.8936C43.6084 57.4115 45.0616 59.2028 47.4613 59.2028ZM47.7823 57.7664C46.1601 57.7664 45.2137 56.5497 45.2137 54.8429C45.2137 53.153 46.1601 51.9363 47.7823 51.9363C49.4046 51.9363 50.4016 53.153 50.4016 54.8429C50.4016 56.5666 49.4046 57.7664 47.7823 57.7664ZM55.8702 59V54.0994C55.8702 52.7813 56.6645 51.9532 57.8643 51.9532C58.9796 51.9532 59.6893 52.663 59.6893 53.9642V59H61.2609V54.0994C61.2609 52.7813 62.0552 51.9363 63.255 51.9363C64.3703 51.9363 65.0969 52.6799 65.0969 53.9811V59H66.6516V53.5924C66.6516 51.6828 65.5025 50.4999 63.6099 50.4999C62.3256 50.4999 61.3285 51.1421 60.9399 52.1729C60.5174 51.1421 59.6049 50.4999 58.3206 50.4999C57.1545 50.4999 56.2758 51.0407 55.8533 51.818L55.7012 50.7365H54.2818V59H55.8702ZM70.0365 59.2028C70.6787 59.2028 71.2363 58.662 71.2363 58.0199C71.2363 57.3608 70.6787 56.8201 70.0365 56.8201C69.3775 56.8201 68.8198 57.3608 68.8198 58.0199C68.8198 58.662 69.3775 59.2028 70.0365 59.2028Z" fill="#F2F2F2"/>
<defs>
<filter id="filter0_i_129_3689" x="0" y="0" width="89" height="93" filterUnits="userSpaceOnUse" color-interpolation-filters="sRGB">
<feFlood flood-opacity="0" result="BackgroundImageFix"/>
<feBlend mode="normal" in="SourceGraphic" in2="BackgroundImageFix" result="shape"/>
<feColorMatrix in="SourceAlpha" type="matrix" values="0 0 0 0 0 0 0 0 0 0 0 0 0 0 0 0 0 0 127 0" result="hardAlpha"/>
<feOffset dy="4"/>
<feGaussianBlur stdDeviation="4.5"/>
<feComposite in2="hardAlpha" operator="arithmetic" k2="-1" k3="1"/>
<feColorMatrix type="matrix" values="0 0 0 0 0.976471 0 0 0 0 0.909804 0 0 0 0 0.0745098 0 0 0 0.32 0"/>
<feBlend mode="normal" in2="shape" result="effect1_innerShadow_129_3689"/>
</filter>
</defs>
</svg>
